HIERARCHY
ROOT Hips
{
	OFFSET -3.958830 18.904000 13.208200
	CHANNELS 6 Xposition Yposition Zposition Zrotation Yrotation Xrotation 
	JOINT LHipJoint
	{
		OFFSET 0.000000 0.000000 0.000000
		CHANNELS 3 Zrotation Yrotation Xrotation
		JOINT LeftUpLeg
		{
			OFFSET 1.800000 -1.400000 0.085000
			CHANNELS 3 Zrotation Yrotation Xrotation
			JOINT LeftLeg
			{
				OFFSET 2.215000 -6.000000 0.000000
				CHANNELS 3 Zrotation Yrotation Xrotation
				JOINT LeftFoot
				{
					OFFSET 2.500000 -6.900000 0.000000
					CHANNELS 3 Zrotation Yrotation Xrotation
					JOINT LeftToeBase
					{
						OFFSET 0.200000 -0.500000 1.950000
						CHANNELS 3 Zrotation Yrotation Xrotation
						End Site
						{
							OFFSET 0.000000 0.000000 0.000000
						}
					}
				}
			}
		}
	}
	JOINT RHipJoint
	{
		OFFSET 0.000000 0.000000 0.000000
		CHANNELS 3 Zrotation Yrotation Xrotation
		JOINT RightUpLeg
		{
			OFFSET -1.800000 -1.400000 0.085000
			CHANNELS 3 Zrotation Yrotation Xrotation
			JOINT RightLeg
			{
				OFFSET -2.215000 -6.000000 0.000000
				CHANNELS 3 Zrotation Yrotation Xrotation
				JOINT RightFoot
				{
					OFFSET -2.500000 -6.900000 0.000000
					CHANNELS 3 Zrotation Yrotation Xrotation
					JOINT RightToeBase
					{
						OFFSET -0.200000 -0.500000 1.950000
						CHANNELS 3 Zrotation Yrotation Xrotation
						End Site
						{
							OFFSET 0.000000 0.000000 0.000000
						}
					}
				}
			}
		}
	}
	JOINT LowerBack
	{
		OFFSET 0.000000 0.000000 0.000000
		CHANNELS 3 Zrotation Yrotation Xrotation
		JOINT Spine
		{
			OFFSET -0.087000 1.940000 -0.288900
			CHANNELS 3 Zrotation Yrotation Xrotation
			JOINT Spine1
			{
				OFFSET 0.000000 1.950000 0.060000
				CHANNELS 3 Zrotation Yrotation Xrotation
				JOINT Neck
				{
					OFFSET 0.000000 0.000000 0.000000
					CHANNELS 3 Zrotation Yrotation Xrotation
					JOINT Neck1
					{
						OFFSET 0.000000 1.600000 0.340000
						CHANNELS 3 Zrotation Yrotation Xrotation
						JOINT Head
						{
							OFFSET 0.000000 1.667000 -0.240000
							CHANNELS 3 Zrotation Yrotation Xrotation
							End Site
							{
								OFFSET 0.000000 0.000000 0.000000
							}
						}
					}
				}
				JOINT LeftShoulder
				{
					OFFSET 0.000000 0.000000 0.000000
					CHANNELS 3 Zrotation Yrotation Xrotation
					JOINT LeftArm
					{
						OFFSET 2.700000 1.550000 -0.730000
						CHANNELS 3 Zrotation Yrotation Xrotation
						JOINT LeftForeArm
						{
							OFFSET 5.450000 0.000000 0.000000
							CHANNELS 3 Zrotation Yrotation Xrotation
							JOINT LeftHand
							{
								OFFSET 3.450000 0.000000 0.000000
								CHANNELS 3 Zrotation Yrotation Xrotation
								JOINT LeftHandIndex1
								{
									OFFSET 0.750000 0.000000 0.000000
									CHANNELS 3 Zrotation Yrotation Xrotation
									End Site
									{
										OFFSET 0.000000 0.000000 0.000000
									}
								}
							}
						}
					}
				}
				JOINT RightShoulder
				{
					OFFSET 0.000000 0.000000 0.000000
					CHANNELS 3 Zrotation Yrotation Xrotation
					JOINT RightArm
					{
						OFFSET -2.700000 1.550000 -0.730000
						CHANNELS 3 Zrotation Yrotation Xrotation
						JOINT RightForeArm
						{
							OFFSET -5.450000 0.000000 0.000000
							CHANNELS 3 Zrotation Yrotation Xrotation
							JOINT RightHand
							{
								OFFSET -3.450000 0.000000 0.000000
								CHANNELS 3 Zrotation Yrotation Xrotation
								JOINT RightHandIndex1
								{
									OFFSET -0.750000 0.000000 0.000000
									CHANNELS 3 Zrotation Yrotation Xrotation
									End Site
									{
										OFFSET 0.000000 0.000000 0.000000
									}
								}
							}
						}
					}
				}
			}
		}
	}
}
MOTION
Frames: 13
Frame Time: 0.016667
-1.583530 16.860270 -3.438030 -10.269175 -23.357283 2.348176 -15.984439 14.097541 4.254933 18.531590 -2.739330 -33.533642 -7.052802 8.838143 25.717980 -0.523878 5.581340 2.272642 0.165390 0.162590 0.058630 17.619911 -8.860615 2.517430 3.881964 1.739784 -10.614684 10.546463 -7.999559 24.850652 -0.281780 -4.139660 3.204434 0.174270 0.049790 -0.366090 -1.187476 -7.152933 -8.141545 -9.031131 2.712605 28.414023 9.344591 4.572735 13.409466 -0.071514 -7.508599 -13.378656 -18.484860 13.528341 28.388672 -0.863610 13.530120 -16.200860 -18.317958 -14.020087 6.483019 -55.861854 -27.850594 8.247062 153.331267 -61.940584 -156.065813 -3.642684 3.043723 0.435420 -0.047490 -0.190320 -0.011560 19.042390 18.697294 12.341220 33.574370 -11.192219 -8.181864 -25.131820 16.026571 -2.393362 2.138927 -1.358225 -0.388380 0.406110 0.152830 -0.325110 
-1.513510 16.921670 -3.435400 -9.188292 -24.947280 3.844701 -15.921551 14.242225 4.186749 16.150103 -3.024820 -33.497079 -6.479188 8.005500 23.586969 -0.471029 4.967475 2.533056 0.126470 0.126600 0.013470 17.624664 -8.951244 2.515246 1.830094 2.100123 -12.125065 11.399193 -7.789915 23.414248 -0.201893 -3.941681 3.289246 0.113850 0.059970 -0.356150 -1.257118 -7.220753 -8.064735 -8.587880 2.354169 30.089237 8.922276 4.062166 10.478508 1.065047 -8.671215 -13.334539 -20.390148 14.754988 25.688927 -2.278520 14.099670 -14.443900 -17.835980 -11.103428 6.410176 -54.211221 -20.461255 3.835005 170.643740 -64.533539 176.960406 -3.544007 3.167631 0.381470 -0.043970 -0.199580 0.008380 16.919882 17.107705 11.609490 32.554161 -11.101132 -8.042326 -23.330794 16.174359 -2.049014 2.200397 -1.337205 -0.344900 0.358840 0.137050 -0.281190 
-1.442640 16.988080 -3.422760 -7.992929 -27.170571 4.878397 -15.850266 14.427322 4.066968 13.548270 -3.193376 -32.840421 -5.535094 7.123619 21.358171 -0.440839 4.340456 2.796825 0.083390 0.075250 -0.017140 17.632607 -9.051515 2.529094 -0.206203 2.341336 -13.204775 12.020111 -7.490480 21.932590 -0.126203 -3.754020 3.366286 0.051820 0.059600 -0.350790 -1.327452 -7.306749 -7.973262 -8.312569 2.205918 32.290006 8.277258 3.855544 7.010796 2.285284 -9.749502 -13.111942 -22.270616 15.575898 22.788553 -4.083790 14.442980 -13.253250 -16.692617 -7.330461 6.081317 -52.419401 -13.261438 0.177918 -168.499553 -65.886671 145.955123 -3.521652 3.188917 0.341380 -0.046390 -0.209860 0.009650 14.015973 14.775190 10.504249 32.320703 -10.998938 -8.594885 -21.691962 19.126157 -2.095278 2.214882 -1.301348 -0.311950 0.317220 0.132300 -0.252820 
-1.378330 17.039570 -3.387460 -7.432915 -30.625362 6.213342 -15.746029 14.524624 3.935256 11.841000 -2.950708 -31.597313 -4.996808 6.454549 18.719736 -0.422548 3.835129 3.017243 0.037640 0.035210 -0.074810 17.677901 -9.193329 2.587894 -1.486533 2.574036 -13.939461 12.143854 -6.982440 20.305926 -0.046180 -3.553022 3.459821 0.012360 0.087420 -0.366900 -1.505377 -7.123490 -7.886394 -7.101707 1.798821 33.824753 7.060028 3.771385 3.485566 3.175749 -10.787921 -13.141165 -24.494352 17.318505 19.991236 -4.756400 15.099160 -11.363610 -15.898760 -3.915975 6.144053 -49.787770 -5.617907 -2.145021 -152.036181 -64.192580 120.562969 -3.568248 3.256910 0.297780 -0.037600 -0.241460 0.019900 12.172297 12.635579 9.334891 30.836971 -10.123743 -8.487700 -19.818025 20.666292 -1.907651 2.238169 -1.264168 -0.301950 0.303250 0.138310 -0.220430 
-1.311560 17.096850 -3.342380 -7.029323 -34.617947 7.312791 -15.641249 14.597857 3.785612 10.412015 -2.570980 -29.620812 -4.773169 5.815532 15.518478 -0.402296 3.385084 3.221230 0.020750 0.025420 -0.122580 17.725358 -9.326834 2.662719 -2.836744 2.770813 -14.342804 12.695512 -6.587840 18.523412 -0.011008 -3.411123 3.518264 -0.011030 0.109490 -0.369880 -1.701067 -6.894795 -7.794518 -5.816734 1.484695 35.399366 5.997856 3.778023 0.329338 3.698294 -11.836077 -13.388551 -27.378406 19.458455 17.028891 -4.927510 15.599240 -10.419980 -15.368524 -1.055823 6.556153 -46.854422 2.112847 -3.491636 -139.752178 -60.370181 99.147724 -3.592631 3.433490 0.275660 -0.046980 -0.249370 0.045290 11.302468 10.949248 8.386886 28.526563 -9.403827 -8.126837 -18.470307 21.490775 -1.693694 2.271494 -1.240818 -0.284700 0.297880 0.135210 -0.181590 
-1.241820 17.140760 -3.287570 -6.696462 -38.758769 8.577311 -15.551925 14.569051 3.686717 8.996229 -2.324545 -27.901813 -4.656201 5.267112 12.611240 -0.394557 3.053681 3.384599 0.009000 0.008110 -0.139440 17.772808 -9.466290 2.740470 -3.937025 2.979264 -14.889993 13.065878 -6.221825 17.046382 0.019568 -3.297592 3.558229 -0.026590 0.130410 -0.367710 -1.909780 -6.501708 -7.722158 -4.232036 1.404844 35.839217 4.808721 4.020591 -1.793085 3.874148 -12.533126 -13.541258 -29.516000 21.060707 15.039528 -5.322100 16.135270 -9.562300 -15.308288 0.970871 6.849688 -43.165634 8.385879 -4.128503 -131.246944 -56.411706 83.602478 -3.596152 3.586249 0.259160 -0.045230 -0.258520 0.057450 11.248349 9.798689 7.711972 25.826442 -9.083459 -7.853285 -19.308341 22.729378 -1.884642 2.284554 -1.246726 -0.279170 0.298130 0.133660 -0.162000 
-1.174880 17.158210 -3.231870 -6.261906 -41.846631 10.192310 -15.471094 14.377490 3.684840 7.528750 -2.426703 -27.054041 -4.927659 4.789087 9.906420 -0.438299 2.827327 3.510232 -0.027620 -0.033410 -0.169440 17.835587 -9.597994 2.820862 -4.668547 3.258336 -16.099967 13.356196 -5.988067 16.178787 0.068287 -3.236365 3.579603 -0.027370 0.182630 -0.373510 -2.189768 -5.913471 -7.685550 -2.155515 1.022018 34.798046 3.196510 3.906327 -2.745815 3.654949 -12.774297 -13.563046 -30.005193 22.207735 13.803874 -5.715880 16.964410 -8.256730 -14.445090 2.292403 7.152599 -38.872627 12.825794 -3.917345 -125.932427 -52.366190 72.794133 -3.630249 3.674853 0.237510 -0.003440 -0.300680 0.055660 10.830324 8.690742 6.988327 23.514527 -8.525159 -7.535459 -18.903072 24.031078 -1.966998 2.251934 -1.239409 -0.312950 0.318460 0.161650 -0.163920 
-1.102400 17.174130 -3.174920 -5.744430 -43.979497 11.325866 -15.371790 14.123959 3.698054 5.861748 -2.670660 -26.557860 -4.993520 4.348686 7.861079 -0.531024 2.675622 3.605662 -0.053260 -0.077510 -0.162700 17.926513 -9.782052 2.881895 -5.143498 3.384495 -16.990665 13.177674 -5.739747 15.362391 0.107523 -3.168045 3.590316 -0.012660 0.230850 -0.364110 -2.550061 -5.167665 -7.641126 0.363142 0.361140 33.960812 0.998863 3.545484 -3.003266 3.166884 -12.954944 -13.253578 -29.742551 22.620843 12.717565 -6.637970 17.244580 -8.796080 -13.884796 3.324921 7.085919 -33.930080 15.902633 -3.223959 -124.238676 -49.336101 67.705864 -3.702895 3.686154 0.238870 0.043620 -0.333200 0.034550 10.883468 7.609863 6.183263 20.742811 -7.574198 -7.033129 -17.889709 25.221927 -1.935803 2.195611 -1.210687 -0.361220 0.359250 0.202930 -0.188630 
-1.032000 17.187940 -3.114000 -5.514017 -45.425037 12.112247 -15.270792 13.875701 3.723275 4.765598 -2.822378 -26.179609 -5.475378 4.114053 6.466997 -0.597468 2.617271 3.648151 -0.076770 -0.104040 -0.164810 18.027934 -9.994907 2.891435 -4.794095 3.223491 -17.152578 11.744307 -5.254805 14.238129 0.154790 -3.006472 3.645570 0.002230 0.262820 -0.357960 -2.924599 -4.422858 -7.588350 3.463845 -0.662740 32.824387 -1.443979 2.966566 -1.681468 2.866236 -13.067694 -13.368344 -29.562583 23.013826 12.131774 -7.891980 17.893840 -9.144760 -13.824016 2.898052 7.434764 -28.320073 18.922603 -2.687574 -125.402097 -47.906846 67.257972 -3.785750 3.683302 0.234370 0.085230 -0.357270 0.017380 10.957097 7.762797 5.908175 18.039292 -6.762574 -6.649328 -17.118205 25.915882 -1.966608 2.147347 -1.194576 -0.397220 0.383410 0.235520 -0.208150 
-0.975100 17.208380 -3.044170 -5.350336 -46.748206 11.924999 -15.160812 13.707407 3.694735 4.073948 -2.725462 -24.823038 -6.160772 4.034979 5.540581 -0.646625 2.649141 3.642714 -0.063730 -0.103460 -0.134810 18.129090 -10.240367 2.880201 -4.442696 2.870856 -16.362276 10.087810 -4.834234 13.213151 0.162226 -2.893080 3.670699 0.023280 0.253730 -0.347620 -3.286623 -3.746781 -7.515674 6.576411 -1.626758 32.499772 -3.596560 2.584328 -0.516475 2.465367 -13.426048 -13.577666 -30.572558 23.031744 12.060986 -8.664140 17.629530 -10.265360 -13.740008 2.062019 7.518717 -22.124361 20.681282 -1.757167 -123.649453 -44.715633 61.502026 -3.810299 3.687228 0.256760 0.086000 -0.352950 -0.005280 11.269777 8.483630 6.041088 14.940583 -6.674342 -6.344010 -16.693756 26.899540 -2.038453 2.107925 -1.182855 -0.412330 0.397320 0.254170 -0.231280 
-0.929730 17.220400 -2.961140 -6.467205 -48.287981 12.326380 -15.043439 13.581886 3.607540 4.292428 -2.321927 -23.370974 -6.522313 4.069115 5.203060 -0.673031 2.731798 3.624025 -0.053670 -0.100680 -0.115660 18.239168 -10.507617 2.886935 -3.070001 2.608625 -15.400266 7.862395 -4.476371 13.148365 0.159774 -2.813639 3.702137 0.040900 0.258600 -0.347400 -3.679883 -3.056297 -7.414151 10.617410 -2.884336 32.138917 -5.876606 2.245000 0.473339 2.298372 -13.799602 -13.874265 -31.753566 23.066270 12.311069 -8.898540 17.246390 -10.845030 -13.379349 1.292634 7.828886 -18.604055 22.549110 -1.496125 -120.545964 -43.004166 55.999464 -3.816718 3.659256 0.273940 0.087190 -0.349090 -0.011850 10.909566 9.196892 6.070074 11.868231 -4.976593 -5.693898 -15.253046 26.444848 -1.776344 2.098189 -1.139085 -0.428800 0.426570 0.263660 -0.241720 
-0.904050 17.211810 -2.878600 -6.598460 -49.179759 12.444255 -14.913125 13.397755 3.530298 3.948363 -2.244245 -22.522836 -6.614167 4.099685 5.579269 -0.725464 2.753775 3.620354 -0.034810 -0.079420 -0.106720 18.369868 -10.811653 2.882478 -1.922284 2.316859 -15.237382 5.149024 -4.055509 13.421795 0.174753 -2.727410 3.730168 0.077420 0.279340 -0.352520 -4.127897 -2.234533 -7.290112 14.354535 -3.878093 30.491448 -8.273530 1.945945 1.168353 1.589103 -14.032934 -13.946112 -32.583688 22.994591 12.926662 -7.677230 16.263560 -10.795550 -12.226817 0.604231 7.895328 -14.639203 22.546849 -0.522051 -116.803519 -41.041460 50.614562 -3.831851 3.641067 0.274890 0.098380 -0.361740 -0.016820 10.828353 9.492461 6.075938 9.906606 -4.340360 -5.247397 -14.252401 26.542736 -1.639882 2.071508 -1.119343 -0.445400 0.462080 0.276930 -0.244910 
-0.886480 17.198790 -2.799960 -6.403814 -49.900247 12.309140 -14.792550 13.217457 3.443444 3.631122 -2.262000 -22.025664 -6.545577 4.187549 6.674335 -0.802946 2.788766 3.601489 -0.014500 -0.071310 -0.102400 18.494578 -11.106378 2.878411 -0.769789 2.146624 -15.444970 2.275360 -3.636375 14.396875 0.177420 -2.681106 3.723474 0.114560 0.289380 -0.355760 -4.557305 -1.429297 -7.160696 17.861206 -4.516088 28.734565 -10.920511 1.973501 1.640135 0.887042 -14.208723 -14.039448 -33.530680 22.607688 13.871473 -6.067730 14.760720 -10.898490 -10.317873 0.047268 7.687227 -10.957456 20.726133 0.715781 -113.287336 -39.557521 46.810938 -3.828400 3.624056 0.303480 0.091020 -0.369180 -0.022120 10.025014 9.617992 6.275525 10.113709 -4.537408 -5.310133 -13.469155 27.611731 -1.582417 2.021720 -1.108040 -0.472900 0.494410 0.298370 -0.256310 
